# xmcd CD database file
#
# Track frame offsets:
#	150
#	19677
#	32400
#	63167
#	80572
#	99950
#	113580
#	135980
#	161712
#	187257
#	202965
#	242535
#	262107
#	281992
#	299995
#
# Disc length: 4258 seconds
#
# Revision: 0
# Processed by: cddbd v1.4PL0 Copyright (c) Steve Scherf et al.
# Submitted via: CDex 1.40Beta9
#
DISCID=d710a00f
DTITLE=Blue Largo - What a Day!
DYEAR=2000
DGENRE=Blues
TTITLE0=Ain't Gonna Quit You Baby
TTITLE1=You Came a Long Way From St. Louis
TTITLE2=Fine and Mellow
TTITLE3=What a Day
TTITLE4=Pitchin' Up a Boogie
TTITLE5=Strollin' With Bone
TTITLE6=Love Me or Leave Me
TTITLE7=Five, Ten, Fifteen Hours
TTITLE8=Honky Tonk
TTITLE9=If It's Good
TTITLE10=One For My Baby (and one more for the road)
TTITLE11=He Walks Right In
TTITLE12=Fat Daddy
TTITLE13=Swing Brother Swing
TTITLE14=Sweet and Lovely
EXTD=YEAR: 2000 ID3G: 0
EXTT0=
EXTT1=
EXTT2=
EXTT3=
EXTT4=
EXTT5=
EXTT6=
EXTT7=
EXTT8=
EXTT9=
EXTT10=
EXTT11=
EXTT12=
EXTT13=
EXTT14=
PLAYORDER=
